<?xml version="1.0" encoding="UTF-8"?><svg id="Capa_1" xmlns="http://www.w3.org/2000/svg" viewBox="0 0 130.0684 206.7748"><defs><style>.cls-1{fill:#10e2f4;}.cls-2{fill:#14f283;}.cls-3{fill:#0e8af4;}</style></defs><path id="path5902-3-2" class="cls-1" d="M.5937,135.0179c-.3058,2.4242-.4722,4.8637-.4987,7.3067-.0002,35.5946,29.0952,64.4499,64.9863,64.4502,35.8912,0,64.987-28.855,64.987-64.4497v-.0005c-.0128-2.4422-.1655-4.8817-.4575-7.3067h-29.5486c.6376,2.6475,.9669,5.3598,.9814,8.083,.0002,19.5113-15.8167,35.3285-35.328,35.3287h-.0007c-19.5113-.0002-35.3281-15.8174-35.3279-35.3287,.0125-2.7229,.3398-5.4352,.9753-8.083H.5937Z"/><path id="path5923-1" class="cls-3" d="M101.5019,51.3193s-46.5719,14.5014-7.8085,74.4592c38.7634,59.9578-19.9803,80.5296-19.9803,80.5296,0,0,51.153-6.1683,55.955-55.9888,4.462-46.293-34.3014-58.0056-28.1663-99h0Z"/><path class="cls-2" d="M45.4483,.0066s11.6111,16.8729-15.7055,68.4478c-5.151-5.9102-10.2245-17.1685-2.9791-36.3774,0,0-42.812,19.4642-16.8467,71.4355-31.4456,65.967,21.1827,95.4837,29.7303,98.1487,0,0-33.7597-49.6625,11.2011-99.8658C111.2992,34.2958,56.6032-.5512,45.4483,.0066Z"/></svg>